<svg xmlns="http://www.w3.org/2000/svg" version="1.1" width="1024" height="700">
<rect x="0" y="0" width="1024" height="700" fill="#d0cbc9" />
<g transform="scale(4.000000) translate(0.5 0.5)">
<polygon fill="#000000" fill-opacity="0.501961" points="123,-16 126,190 203,164" />
<polygon fill="#000000" fill-opacity="0.501961" points="192,190 106,156 178,70" />
<polygon fill="#ffffff" fill-opacity="0.501961" points="231,190 130,-16 271,2" />
<polygon fill="#ffffff" fill-opacity="0.501961" points="28,190 -16,2 126,-16" />
<polygon fill="#000000" fill-opacity="0.501961" points="186,113 104,12 150,190" />
<polygon fill="#ffffff" fill-opacity="0.501961" points="182,-16 189,190 271,162" />
<polygon fill="#2a0000" fill-opacity="0.501961" points="93,123 78,190 62,156" />
<polygon fill="#ffffff" fill-opacity="0.501961" points="271,124 139,63 180,-16" />
<polygon fill="#3c0000" fill-opacity="0.501961" points="108,12 148,10 142,72" />
<polygon fill="#ffffff" fill-opacity="0.501961" points="2,190 130,44 -6,-16" />
<polygon fill="#d1ad9c" fill-opacity="0.501961" points="89,147 129,190 128,26" />
<polygon fill="#000000" fill-opacity="0.501961" points="119,62 181,82 188,190" />
<polygon fill="#ffffff" fill-opacity="0.501961" points="91,-16 60,190 -16,154" />
<polygon fill="#ffffff" fill-opacity="0.501961" points="268,-5 260,115 115,-10" />
<polygon fill="#ffffff" fill-opacity="0.501961" points="271,175 190,190 180,-12" />
<polygon fill="#000000" fill-opacity="0.501961" points="108,14 128,4 108,46" />
<polygon fill="#000000" fill-opacity="0.501961" points="129,93 198,190 129,190" />
<polygon fill="#ffffff" fill-opacity="0.501961" points="122,-4 -16,-4 0,190" />
<polygon fill="#ffffff" fill-opacity="0.501961" points="206,93 142,64 164,-9" />
<polygon fill="#aa572a" fill-opacity="0.501961" points="137,15 128,87 107,36" />
<polygon fill="#5e340d" fill-opacity="0.501961" points="73,133 60,187 91,138" />
<polygon fill="#21251a" fill-opacity="0.501961" points="98,106 108,116 144,106" />
<polygon fill="#ffffef" fill-opacity="0.501961" points="128,104 75,63 128,85" />
<polygon fill="#000000" fill-opacity="0.501961" points="126,4 144,14 149,41" />
<polygon fill="#ffffff" fill-opacity="0.501961" points="70,-16 251,48 271,-16" />
<polygon fill="#ffffff" fill-opacity="0.501961" points="187,168 242,-16 271,189" />
<polygon fill="#b9b4b4" fill-opacity="0.501961" points="127,114 70,116 127,190" />
<polygon fill="#000000" fill-opacity="0.501961" points="189,190 134,67 180,82" />
<polygon fill="#ffffff" fill-opacity="0.501961" points="-16,180 63,179 80,-16" />
<polygon fill="#ffffff" fill-opacity="0.501961" points="142,61 167,-2 163,76" />
<polygon fill="#ffffff" fill-opacity="0.501961" points="101,-16 -16,74 113,75" />
<polygon fill="#ffffff" fill-opacity="0.501961" points="265,188 137,6 255,-16" />
<polygon fill="#000000" fill-opacity="0.501961" points="185,110 119,182 184,173" />
<polygon fill="#000000" fill-opacity="0.501961" points="138,12 108,29 111,14" />
<polygon fill="#825839" fill-opacity="0.501961" points="140,96 142,68 109,69" />
<polygon fill="#ffffff" fill-opacity="0.501961" points="187,88 189,190 271,163" />
<polygon fill="#ffffff" fill-opacity="0.501961" points="181,91 200,190 270,-16" />
<polygon fill="#ffffff" fill-opacity="0.501961" points="-8,140 -16,-6 125,-2" />
<polygon fill="#f8dfcc" fill-opacity="0.501961" points="108,67 69,107 128,100" />
<polygon fill="#5d2f06" fill-opacity="0.501961" points="81,190 85,147 61,190" />
<polygon fill="#060000" fill-opacity="0.501961" points="140,62 134,190 181,99" />
<polygon fill="#d07d4e" fill-opacity="0.501961" points="130,19 144,24 112,33" />
<polygon fill="#ffffff" fill-opacity="0.501961" points="-16,190 74,131 54,190" />
<polygon fill="#260e00" fill-opacity="0.501961" points="138,65 141,14 148,39" />
<polygon fill="#aaa9b5" fill-opacity="0.501961" points="92,121 90,190 140,190" />
<polygon fill="#ffffff" fill-opacity="0.501961" points="271,65 151,68 145,-6" />
<polygon fill="#000000" fill-opacity="0.501961" points="111,43 108,19 120,7" />
<polygon fill="#ffffff" fill-opacity="0.501961" points="200,-16 37,-16 118,6" />
<polygon fill="#73533f" fill-opacity="0.501961" points="92,135 61,190 72,134" />
<polygon fill="#9a5b3e" fill-opacity="0.501961" points="116,72 144,38 115,45" />
<polygon fill="#000000" fill-opacity="0.501961" points="193,181 129,112 129,184" />
<polygon fill="#f4e1d5" fill-opacity="0.501961" points="113,112 103,70 128,88" />
<polygon fill="#ffffff" fill-opacity="0.501961" points="88,149 83,176 90,173" />
<polygon fill="#41301a" fill-opacity="0.501961" points="138,118 141,46 126,66" />
<polygon fill="#ffffff" fill-opacity="0.501961" points="69,93 81,-4 115,56" />
<polygon fill="#b5aba5" fill-opacity="0.501961" points="94,126 81,136 75,92" />
<polygon fill="#bea99b" fill-opacity="0.501961" points="122,107 108,163 125,190" />
<polygon fill="#ffffff" fill-opacity="0.501961" points="249,-16 142,57 271,139" />
<polygon fill="#0a0600" fill-opacity="0.501961" points="142,15 131,6 126,21" />
<polygon fill="#d2cacd" fill-opacity="0.501961" points="105,171 90,115 118,116" />
<polygon fill="#130801" fill-opacity="0.501961" points="150,77 127,69 139,56" />
<polygon fill="#1f2019" fill-opacity="0.501961" points="114,114 100,110 108,108" />
<polygon fill="#160f04" fill-opacity="0.501961" points="148,73 131,135 176,80" />
<polygon fill="#000100" fill-opacity="0.501961" points="117,8 106,25 127,19" />
<polygon fill="#b07963" fill-opacity="0.501961" points="126,57 129,85 115,78" />
<polygon fill="#a77157" fill-opacity="0.501961" points="117,25 109,45 122,58" />
<polygon fill="#ffffff" fill-opacity="0.501961" points="-5,75 138,-4 -16,-4" />
<polygon fill="#ffffff" fill-opacity="0.501961" points="151,14 150,69 167,77" />
<polygon fill="#ddccbe" fill-opacity="0.501961" points="79,84 67,129 105,71" />
<polygon fill="#2a1a03" fill-opacity="0.501961" points="118,33 145,31 149,40" />
<polygon fill="#624f35" fill-opacity="0.501961" points="144,78 134,114 134,78" />
<polygon fill="#ffffff" fill-opacity="0.501961" points="86,-16 59,190 -16,167" />
<polygon fill="#040100" fill-opacity="0.501961" points="146,42 139,11 147,25" />
<polygon fill="#000000" fill-opacity="0.501961" points="187,158 184,112 114,190" />
<polygon fill="#8f7a69" fill-opacity="0.501961" points="126,157 132,190 117,180" />
<polygon fill="#ffffff" fill-opacity="0.501961" points="181,82 183,104 232,88" />
<polygon fill="#cd7851" fill-opacity="0.501961" points="125,31 129,43 130,19" />
<polygon fill="#ffffff" fill-opacity="0.501961" points="59,74 93,-10 109,36" />
<polygon fill="#bebbc6" fill-opacity="0.501961" points="111,190 105,102 89,175" />
<polygon fill="#926143" fill-opacity="0.501961" points="64,170 85,190 70,144" />
<polygon fill="#ffffff" fill-opacity="0.501961" points="186,51 241,15 108,-16" />
<polygon fill="#483b30" fill-opacity="0.501961" points="83,161 75,136 90,135" />
<polygon fill="#c8bcb7" fill-opacity="0.501961" points="88,136 70,115 70,133" />
<polygon fill="#c8b6a7" fill-opacity="0.501961" points="128,114 94,139 127,145" />
<polygon fill="#9498a7" fill-opacity="0.501961" points="91,138 104,142 93,162" />
<polygon fill="#f4e2d6" fill-opacity="0.501961" points="92,84 90,121 110,90" />
<polygon fill="#231b10" fill-opacity="0.501961" points="141,127 121,105 142,115" />
<polygon fill="#2f1204" fill-opacity="0.501961" points="132,41 126,47 134,47" />
<polygon fill="#362d12" fill-opacity="0.501961" points="118,8 129,9 128,4" />
<polygon fill="#020000" fill-opacity="0.501961" points="180,84 187,140 166,91" />
<polygon fill="#000000" fill-opacity="0.501961" points="130,92 129,80 135,84" />
<polygon fill="#a8a07d" fill-opacity="0.501961" points="126,7 129,13 123,10" />
<polygon fill="#ffffff" fill-opacity="0.501961" points="113,67 106,35 60,89" />
<polygon fill="#eed8ca" fill-opacity="0.501961" points="83,84 128,84 129,103" />
<polygon fill="#ffffff" fill-opacity="0.501961" points="271,172 188,58 189,178" />
<polygon fill="#ffffff" fill-opacity="0.501961" points="-1,-16 -7,190 125,-9" />
<polygon fill="#986d58" fill-opacity="0.501961" points="136,75 130,80 122,76" />
<polygon fill="#717481" fill-opacity="0.501961" points="89,117 85,128 90,134" />
<polygon fill="#ba7350" fill-opacity="0.501961" points="120,22 139,28 113,32" />
<polygon fill="#ffffff" fill-opacity="0.501961" points="85,170 90,161 89,150" />
</g>
</svg>